<?xml version="1.0" standalone="no"?>
<!DOCTYPE svg PUBLIC "-//W3C//DTD SVG 20010904//EN"
 "http://www.w3.org/TR/2001/REC-SVG-20010904/DTD/svg10.dtd">
<svg version="1.0" xmlns="http://www.w3.org/2000/svg"
 width="1024.000000pt" height="1024.000000pt" viewBox="0 0 1024.000000 1024.000000"
 preserveAspectRatio="xMidYMid meet">

<g transform="translate(0.000000,1024.000000) scale(0.100000,-0.100000)"
fill="#000000" stroke="none">
<path d="M7094 8946 c-37 -17 -59 -45 -112 -151 -219 -438 -209 -1052 25
-1520 120 -238 291 -436 533 -616 103 -76 130 -108 130 -149 0 -30 -125 -416
-144 -445 -13 -20 -24 -25 -60 -25 -35 0 -74 15 -188 73 -311 158 -422 248
-948 777 -516 518 -658 642 -981 858 -118 78 -173 139 -223 242 -28 58 -31 75
-31 155 0 80 3 97 31 155 57 121 153 217 282 285 63 34 77 62 45 97 -93 103
-452 116 -811 28 -154 -38 -270 -75 -542 -175 -325 -120 -322 -119 -472 -95
-459 73 -1008 63 -1408 -26 -246 -55 -408 -112 -626 -219 -394 -194 -737 -493
-1011 -881 -514 -728 -685 -1580 -512 -2564 139 -796 517 -1515 1104 -2103
616 -617 1348 -1016 2125 -1156 388 -70 834 -79 1310 -25 644 73 1149 278
1652 673 l118 92 37 -20 c240 -122 838 -190 1208 -137 263 38 360 70 427 144
45 50 61 99 56 172 -6 87 -22 104 -166 172 -192 91 -454 201 -600 251 -114 39
-203 86 -202 106 0 3 73 87 161 186 209 234 337 390 453 548 362 499 609 1100
761 1858 65 325 77 426 74 619 -2 96 0 185 5 198 11 32 31 40 148 57 215 32
388 88 577 185 159 83 286 176 411 300 265 265 415 590 486 1052 25 163 24
263 -4 320 -37 75 -121 115 -178 85 -16 -9 -86 -72 -156 -141 -147 -143 -234
-205 -350 -248 -80 -29 -92 -31 -303 -38 -185 -7 -235 -12 -316 -33 -189 -49
-357 -140 -492 -266 -37 -35 -69 -62 -70 -60 -2 2 -13 42 -26 89 -53 204 -157
352 -335 472 -32 22 -127 73 -212 114 -183 87 -251 131 -327 213 -67 73 -101
142 -156 317 -44 141 -66 179 -117 200 -40 17 -41 17 -80 0z m-5466 -2711
c867 -149 1609 -539 2247 -1179 272 -273 420 -463 836 -1077 345 -510 537
-764 775 -1023 187 -204 486 -468 684 -603 38 -27 69 -51 70 -55 1 -25 -547
-21 -685 5 -195 37 -367 96 -484 167 -43 25 -163 112 -267 192 -532 409 -908
659 -1141 758 -237 100 -346 69 -346 -98 1 -116 50 -263 134 -398 113 -183
119 -251 27 -324 -141 -111 -387 -112 -698 -5 -120 42 -186 78 -390 216 -618
419 -1040 930 -1353 1639 -164 372 -271 749 -326 1140 -26 187 -43 423 -35
478 8 56 40 102 89 129 134 73 551 92 863 38z m4144 -289 c163 -41 262 -101
440 -267 131 -121 239 -252 370 -449 140 -210 220 -370 226 -452 4 -58 4 -59
-39 -101 -79 -78 -279 -135 -408 -117 -122 17 -193 51 -307 144 -92 76 -125
115 -162 194 -25 53 -27 67 -27 187 0 72 4 164 9 206 12 101 -7 158 -72 224
-70 71 -147 104 -271 114 -125 11 -187 38 -214 92 -23 49 -14 89 35 144 46 52
75 69 150 89 79 22 164 19 270 -8z m-175 -549 c28 -31 33 -44 33 -84 0 -66
-27 -106 -84 -128 -60 -23 -114 -9 -149 38 -48 63 -40 135 20 187 33 30 41 32
91 28 48 -4 60 -10 89 -41z"/>
</g>
</svg>
