<svg width="16" height="16" viewBox="0 0 16 16" fill="none" xmlns="http://www.w3.org/2000/svg">
<g clip-path="url(#clip0_321_18846)">
<path d="M9.70703 15.9888C9.75886 15.9925 9.81093 15.9948 9.86328 15.9966C9.81095 16.0003 9.75862 15.9992 9.70703 15.9888ZM9.1875 2.38818C9.41051 2.1709 9.76681 2.17075 9.99023 2.38818C9.99406 2.39159 9.9976 2.39555 10.001 2.39893C10.2118 2.61634 10.2069 2.96381 9.99023 3.17529L5.24316 7.82959L5.21191 7.86084C4.57741 8.51234 4.59166 9.55544 5.24316 10.1899C5.5218 10.4612 5.86944 10.6172 6.22852 10.6626C6.10647 11.0066 6.03105 11.3724 6.00781 11.7524C5.43659 11.6646 4.88628 11.4078 4.44141 10.9751C4.42353 10.9577 4.40557 10.9398 4.3877 10.9214C3.3312 9.83539 3.35541 8.09898 4.44141 7.04248L9.1875 2.38818ZM7.58301 0.814941C8.69903 -0.271224 10.4779 -0.271447 11.5938 0.814941C12.2235 1.4274 12.5214 2.30547 12.3955 3.17529C13.2759 3.0504 14.1653 3.34054 14.8018 3.96143L14.835 3.99463C15.9208 5.05108 15.9459 6.78853 14.8896 7.87451L14.835 7.92822L13.1689 9.56104C12.9394 9.26329 12.6693 8.99869 12.3662 8.77588L14.0332 7.14209C14.6845 6.50762 14.6987 5.46541 14.0645 4.81396C14.054 4.8035 14.0437 4.79221 14.0332 4.78174L14 4.74951C13.3311 4.09864 12.2657 4.09793 11.5957 4.74756L6.81348 9.43701L6.8125 9.43896L6.74707 9.50342C6.52367 9.72076 6.16734 9.7206 5.94434 9.50342C5.72734 9.29192 5.72259 8.94455 5.93359 8.72705C5.93695 8.72366 5.94051 8.71968 5.94434 8.71631L10.793 3.96045C11.4431 3.325 11.4555 2.28273 10.8203 1.63232C10.8108 1.62235 10.801 1.61202 10.791 1.60205C10.1212 0.950391 9.05427 0.950745 8.38477 1.60205L1.96777 7.89502C1.74434 8.11195 1.38953 8.11182 1.16602 7.89502C0.949016 7.68402 0.944273 7.33615 1.15527 7.11865C1.15858 7.1153 1.16225 7.11121 1.16602 7.10791L7.58301 0.814941ZM12.3955 5.53467C12.6185 5.31745 12.9748 5.31744 13.1982 5.53467C13.2022 5.53816 13.2055 5.54292 13.209 5.54639C13.4198 5.7638 13.4154 6.11029 13.1982 6.32178V6.3208L11.2725 8.20752C10.8727 8.07342 10.4449 8.00053 10 8.00049C9.95929 8.00049 9.91835 8.00123 9.87793 8.00244L12.3955 5.53467Z" fill="#3B3B3B"/>
<path d="M10 9.00037C10.7953 9.00136 11.5577 9.31787 12.1201 9.88025C12.6825 10.4426 12.999 11.205 13 12.0004C13 12.5937 12.8238 13.174 12.4941 13.6674C12.1646 14.1604 11.6963 14.5448 11.1484 14.7719C10.6004 14.9989 9.99687 15.0584 9.41504 14.9427C8.83311 14.827 8.29846 14.541 7.87891 14.1215C7.45935 13.7019 7.17337 13.1673 7.05762 12.5853C6.94194 12.0035 7.00149 11.4 7.22852 10.8519C7.45555 10.304 7.83994 9.83578 8.33301 9.50623C8.82635 9.1766 9.40667 9.00037 10 9.00037ZM10.4971 11.3715L11.4473 12.3177L10.4941 13.265L10.8613 13.6342L12 12.5033V12.1342L10.8613 11.0033L10.4971 11.3715ZM8 12.1342V12.5013L9.12891 13.6332L9.49707 13.265L8.55273 12.3177L9.49805 11.3676L9.12891 11.0004L8 12.1342Z" fill="#3B3B3B"/>
</g>
<defs>
<clipPath id="clip0_321_18846">
<rect width="16" height="16" fill="white"/>
</clipPath>
</defs>
</svg>
