<svg width="491" height="437" viewBox="0 0 491 437" fill="none" xmlns="http://www.w3.org/2000/svg">
  <g>
    <g>
      <g>
        <g>
          <rect y="294.441" width="33.2656" height="33.2656" rx="2" fill="var(--vscode-sideBar-background, #292929)" />
        </g>
        <g>
          <rect x="45.7408" y="65.7405" width="33.2656" height="33.2656" rx="2" fill="var(--vscode-sideBar-background, #292929)" />
        </g>
        <g>
          <rect x="45.7408" y="111.48" width="33.2656" height="33.2656" rx="2" fill="var(--vscode-sideBar-background, #292929)" />
        </g>
        <g>
          <rect x="45.7408" y="157.22" width="33.2656" height="33.2656" rx="2" fill="var(--vscode-sideBar-background, #292929)" />
        </g>
        <g>
          <rect x="45.7408" y="294.441" width="33.2656" height="33.2656" rx="2" fill="var(--vscode-sideBar-background, #292929)" />
        </g>
        <g>
          <rect x="45.7408" y="340.181" width="33.2656" height="33.2656" rx="2" fill="var(--vscode-sideBar-background, #292929)" />
        </g>
        <g>
          <rect x="91.4797" y="20" width="33.2656" height="33.2656" rx="2" fill="var(--vscode-sideBar-background, #292929)" />
        </g>
        <g>
          <rect x="91.4797" y="65.7405" width="33.2656" height="33.2656" rx="2" fill="var(--vscode-sideBar-background, #292929)" />
        </g>
        <g>
          <rect x="91.4797" y="157.22" width="33.2656" height="33.2656" rx="2" fill="var(--vscode-sideBar-background, #292929)" />
        </g>
        <g>
          <rect x="91.4797" y="202.961" width="33.2656" height="33.2656" rx="2" fill="var(--vscode-sideBar-background, #292929)" />
        </g>
        <g>
          <rect x="91.4797" y="248.7" width="33.2656" height="33.2656" rx="2" fill="var(--vscode-sideBar-background, #292929)" />
        </g>
        <g>
          <rect x="91.4797" y="294.441" width="33.2656" height="33.2656" rx="2" fill="var(--vscode-sideBar-background, #292929)" />
        </g>
        <g>
          <rect x="137.221" y="157.22" width="33.2656" height="33.2656" rx="2" fill="var(--vscode-sideBar-background, #292929)" />
        </g>
        <g>
          <rect x="137.221" y="248.7" width="33.2656" height="33.2656" rx="2" fill="var(--vscode-sideBar-background, #292929)" />
        </g>
        <g>
          <rect x="182.961" y="20" width="33.2656" height="33.2656" rx="2" fill="var(--vscode-sideBar-background, #292929)" />
        </g>
        <g>
          <rect x="182.961" y="111.48" width="33.2656" height="33.2656" rx="2" fill="var(--vscode-sideBar-background, #292929)" />
        </g>
        <g>
          <rect x="182.961" y="157.22" width="33.2656" height="33.2656" rx="2" fill="var(--vscode-sideBar-background, #292929)" />
        </g>
        <g>
          <rect x="182.961" y="202.961" width="33.2656" height="33.2656" rx="2" fill="var(--vscode-sideBar-background, #292929)" />
        </g>
        <g>
          <rect x="182.961" y="294.441" width="33.2656" height="33.2656" rx="2" fill="var(--vscode-sideBar-background, #292929)" />
        </g>
        <g>
          <rect x="228.701" y="65.7405" width="33.2656" height="33.2656" rx="2" fill="var(--vscode-sideBar-background, #292929)" />
        </g>
        <g>
          <rect x="228.701" y="385.921" width="33.2656" height="33.2656" rx="2" fill="var(--vscode-sideBar-background, #292929)" />
        </g>
        <g>
          <rect x="274.44" y="111.48" width="33.2656" height="33.2656" rx="2" fill="var(--vscode-sideBar-background, #292929)" />
        </g>
        <g>
          <rect x="274.44" y="157.22" width="33.2656" height="33.2656" rx="2" fill="var(--vscode-sideBar-background, #292929)" />
        </g>
        <g>
          <rect x="274.44" y="294.441" width="33.2656" height="33.2656" rx="2" fill="var(--vscode-sideBar-background, #292929)" />
        </g>
        <g>
          <rect x="274.44" y="248.7" width="33.2656" height="33.2656" rx="2" fill="var(--vscode-sideBar-background, #292929)" />
        </g>
        <g>
          <rect x="228.701" y="248.7" width="33.2656" height="33.2656" rx="2" fill="var(--vscode-sideBar-background, #292929)" />
        </g>
        <g>
          <rect x="274.44" y="340.181" width="33.2656" height="33.2656" rx="2" fill="var(--vscode-sideBar-background, #292929)" />
        </g>
        <g>
          <rect x="274.44" y="385.921" width="33.2656" height="33.2656" rx="2" fill="var(--vscode-sideBar-background, #292929)" />
        </g>
        <g>
          <rect x="320.181" y="65.7405" width="33.2656" height="33.2656" rx="2" fill="var(--vscode-sideBar-background, #292929)" />
        </g>
        <g>
          <rect x="320.181" y="157.22" width="33.2656" height="33.2656" rx="2" fill="var(--vscode-sideBar-background, #292929)" />
        </g>
        <g>
          <rect x="320.181" y="248.7" width="33.2656" height="33.2656" rx="2" fill="var(--vscode-sideBar-background, #292929)" />
        </g>
        <g>
          <rect x="365.921" y="20" width="33.2656" height="33.2656" rx="2" fill="var(--vscode-sideBar-background, #292929)" />
        </g>
        <g>
          <rect x="365.921" y="65.7405" width="33.2656" height="33.2656" rx="2" fill="var(--vscode-sideBar-background, #292929)" />
        </g>
        <g>
          <rect x="365.921" y="157.22" width="33.2656" height="33.2656" rx="2" fill="var(--vscode-sideBar-background, #292929)" />
        </g>
        <g>
          <rect x="365.921" y="202.961" width="33.2656" height="33.2656" rx="2" fill="var(--vscode-sideBar-background, #292929)" />
        </g>
        <g>
          <rect x="365.921" y="340.181" width="33.2656" height="33.2656" rx="2" fill="var(--vscode-sideBar-background, #292929)" />
        </g>
        <g>
          <rect x="365.921" y="385.921" width="33.2656" height="33.2656" rx="2" fill="var(--vscode-sideBar-background, #292929)" />
        </g>
        <g>
          <rect x="411.661" y="20" width="33.2656" height="33.2656" rx="2" fill="var(--vscode-sideBar-background, #292929)" />
        </g>
        <g>
          <rect x="411.661" y="248.7" width="33.2656" height="33.2656" rx="2" fill="var(--vscode-sideBar-background, #292929)" />
        </g>
        <g>
          <rect x="411.661" y="294.441" width="33.2656" height="33.2656" rx="2" fill="var(--vscode-sideBar-background, #292929)" />
        </g>
        <g>
          <rect x="411.661" y="340.181" width="33.2656" height="33.2656" rx="2" fill="var(--vscode-sideBar-background, #292929)" />
        </g>
        <g>
          <rect x="457.401" y="161.378" width="33.2656" height="33.2656" rx="2" fill="var(--vscode-sideBar-background, #292929)" />
        </g>
        <g>
          <g filter="url(#filter0_d_4685_44832)">
            <rect x="350" y="359" width="60" height="60" rx="4" fill="#FFFFFF" />
            <g clip-path="url(#clip0_4685_44832)">
              <g>
                <mask style="mask-type:luminance" maskUnits="userSpaceOnUse" x="359" y="366" width="43" height="45">
                  <g>
                    <path d="M359 366H401.5V411H359V366Z" fill="#FFFFFF" />
                  </g>
                </mask>
                <g mask="url(#mask0_4685_44832)">
                  <g>
                    <path fill-rule="evenodd" clip-rule="evenodd" d="M372.769 392.555C373.913 392.555 376.189 392.492 379.334 391.197C382.999 389.688 390.291 386.949 395.552 384.135C399.231 382.167 400.844 379.564 400.844 376.059C400.844 371.194 396.9 367.25 392.035 367.25H371.652C364.665 367.25 359 372.915 359 379.902C359 386.89 364.304 392.555 372.769 392.555Z" fill="#39594D" />
                    <path fill-rule="evenodd" clip-rule="evenodd" d="M376.217 401.268C376.217 397.842 378.279 394.754 381.442 393.441L387.862 390.777C394.354 388.082 401.501 392.854 401.501 399.884C401.501 405.33 397.085 409.745 391.638 409.743L384.688 409.742C380.009 409.74 376.217 405.947 376.217 401.268Z" fill="#D18EE2" />
                    <path d="M366.294 394.223C362.266 394.223 359 397.488 359 401.516V402.461C359 406.489 362.265 409.754 366.294 409.754C370.322 409.754 373.587 406.489 373.587 402.461V401.516C373.587 397.488 370.322 394.223 366.294 394.223Z" fill="#FF7759" />
                  </g>
                </g>
              </g>
            </g>
          </g>
        </g>
      </g>
      <g>
        <g>
          <g filter="url(#filter1_d_4685_44832)">
            <rect x="28" y="318" width="60" height="60" rx="4" fill="#FFFFFF" />
            <g clip-path="url(#clip1_4685_44832)">
              <g>
                <mask style="mask-type:luminance" maskUnits="userSpaceOnUse" x="36" y="325" width="45" height="45">
                  <g>
                    <path d="M36 325H81V370H36V325Z" fill="#FFFFFF" />
                  </g>
                </mask>
                <g mask="url(#mask1_4685_44832)">
                  <g>
                    <path d="M40.5 327.25H36V368.161H40.5V327.25ZM73.125 327.25H68.625V368.161H73.125V327.25ZM60.5455 335.432H65.0455V343.614H60.5455V335.432ZM56.8636 351.795H52.3636V359.977H56.8636V351.795Z" fill="#000000" />
                    <path d="M40.0909 359.977H48.2728V368.159H40.0909V359.977ZM72.8183 359.977H81V368.159H72.8183V359.977Z" fill="#EA3326" />
                    <path d="M40.0909 351.795H48.2728V359.977H40.0909V351.795ZM64.6364 351.795H56.4546V359.977H64.6364V351.795ZM81 351.795H72.8183V359.977H81V351.795Z" fill="#EB5829" />
                    <path d="M40.0909 343.614V351.795H81V343.614H40.0909Z" fill="#EE792F" />
                    <path d="M56.4546 335.432H40.0909V343.614H56.4546V335.432ZM81 335.432H64.6364V343.614H81V335.432Z" fill="#F2A73B" />
                    <path d="M40.0909 327.25H48.2728V335.432H40.0909V327.25ZM72.8183 327.25H81V335.432H72.8183V327.25Z" fill="#F7D046" />
                  </g>
                </g>
              </g>
            </g>
          </g>
        </g>
        <g>
          <g filter="url(#filter2_d_4685_44832)">
            <rect x="408" y="181" width="60" height="60" rx="4" fill="#FFFFFF" />
            <g clip-path="url(#clip2_4685_44832)">
              <g>
                <mask style="mask-type:luminance" maskUnits="userSpaceOnUse" x="416" y="205" width="45" height="10">
                  <g>
                    <path d="M461 205.708H416V214.911H461V205.708Z" fill="#FFFFFF" />
                  </g>
                </mask>
                <g mask="url(#mask2_4685_44832)">
                  <g>
                    <g>
                      <path d="M421.931 214.694L421.595 213.631H418.494L418.158 214.694H416.004L419.117 205.942H420.973L424.124 214.694H421.931ZM420.051 208.442L418.98 212.043H421.098L420.051 208.442Z" fill="#1F2127" />
                      <path d="M424.364 205.942H426.406V214.694H424.364V205.942Z" fill="#1F2127" />
                      <path d="M426.957 212.906C427.048 212.474 427.21 212.06 427.436 211.68C427.633 211.36 427.879 211.073 428.165 210.83C428.457 210.587 428.767 210.365 429.093 210.168C429.35 210.017 429.589 209.874 429.809 209.736C430.012 209.611 430.205 209.471 430.388 209.317C430.545 209.186 430.678 209.027 430.78 208.848C430.877 208.67 430.927 208.47 430.923 208.267C430.923 207.917 430.828 207.665 430.637 207.511C430.435 207.353 430.183 207.271 429.927 207.279C429.635 207.27 429.352 207.376 429.136 207.573C428.925 207.769 428.819 208.096 428.819 208.555H426.813C426.81 208.174 426.88 207.796 427.019 207.442C427.153 207.105 427.359 206.802 427.623 206.554C427.904 206.295 428.235 206.095 428.594 205.966C429.018 205.818 429.465 205.746 429.914 205.754C430.299 205.752 430.683 205.805 431.054 205.91C431.399 206.006 431.722 206.167 432.006 206.385C432.286 206.605 432.51 206.888 432.66 207.21C432.83 207.585 432.913 207.993 432.903 208.404C432.908 208.752 432.826 209.096 432.666 209.405C432.513 209.698 432.318 209.968 432.087 210.205C431.862 210.436 431.614 210.643 431.346 210.824C431.08 211.003 430.84 211.155 430.624 211.28C430.325 211.48 430.078 211.653 429.883 211.799C429.716 211.921 429.56 212.057 429.416 212.205C429.309 212.316 429.226 212.448 429.173 212.593C429.125 212.742 429.102 212.899 429.105 213.056H432.841V214.694H426.789C426.778 214.093 426.834 213.493 426.957 212.906Z" fill="#1F2127" />
                      <path d="M433.227 207.479C433.576 207.486 433.925 207.454 434.267 207.385C434.495 207.341 434.711 207.245 434.896 207.104C435.044 206.98 435.153 206.815 435.207 206.629C435.269 206.405 435.299 206.173 435.294 205.941H437.076V214.694H435.021V208.905H433.227V207.479Z" fill="#1F2127" />
                    </g>
                    <g>
                      <path d="M439.387 205.942H441.292V214.694H439.387V205.942Z" fill="#E91E63" />
                      <path d="M448.327 208.662V214.689H446.422V213.839C446.344 213.985 446.243 214.118 446.123 214.232C445.995 214.356 445.85 214.461 445.693 214.545C445.525 214.635 445.347 214.706 445.164 214.757C444.978 214.81 444.785 214.838 444.591 214.838C444.182 214.843 443.776 214.76 443.402 214.594C443.051 214.439 442.735 214.214 442.474 213.932C442.21 213.642 442.007 213.302 441.876 212.932C441.594 212.118 441.594 211.232 441.876 210.418C442.007 210.048 442.21 209.708 442.474 209.418C442.735 209.136 443.051 208.911 443.402 208.756C443.776 208.59 444.182 208.507 444.591 208.512C444.785 208.513 444.978 208.54 445.164 208.594C445.348 208.645 445.526 208.719 445.693 208.812C445.851 208.901 445.995 209.01 446.123 209.137C446.24 209.252 446.34 209.383 446.422 209.525V208.662H448.327ZM444.99 213.214C445.191 213.217 445.392 213.174 445.575 213.089C445.744 213.009 445.897 212.896 446.023 212.758C446.151 212.615 446.25 212.45 446.316 212.27C446.387 212.08 446.423 211.879 446.422 211.676C446.425 211.281 446.283 210.898 446.023 210.601C445.898 210.459 445.746 210.344 445.575 210.263C445.39 210.181 445.191 210.138 444.989 210.138C444.787 210.138 444.588 210.181 444.404 210.263C444.233 210.344 444.08 210.459 443.955 210.601C443.696 210.898 443.554 211.281 443.557 211.676C443.556 211.879 443.592 212.08 443.662 212.27C443.728 212.45 443.827 212.615 443.955 212.758C444.081 212.896 444.234 213.009 444.404 213.089C444.587 213.174 444.787 213.217 444.99 213.214Z" fill="#E91E63" />
                      <path d="M450.642 214.694H448.737V205.942H450.642V209.53C450.724 209.388 450.825 209.257 450.941 209.142C451.07 209.014 451.217 208.904 451.377 208.817C451.545 208.725 451.722 208.651 451.906 208.598C452.094 208.544 452.289 208.517 452.485 208.517C452.895 208.512 453.3 208.596 453.675 208.761C454.026 208.916 454.341 209.141 454.602 209.423C454.866 209.713 455.07 210.053 455.2 210.424C455.482 211.237 455.482 212.123 455.2 212.937C455.07 213.307 454.866 213.647 454.602 213.937C454.341 214.219 454.026 214.445 453.675 214.6C453.3 214.765 452.895 214.848 452.485 214.843C452.289 214.844 452.094 214.817 451.906 214.762C451.723 214.71 451.546 214.639 451.377 214.55C451.218 214.468 451.071 214.362 450.941 214.238C450.822 214.123 450.721 213.99 450.642 213.844V214.694ZM452.087 213.218C452.285 213.221 452.481 213.178 452.66 213.093C452.83 213.014 452.982 212.901 453.109 212.762C453.236 212.62 453.336 212.454 453.402 212.274C453.472 212.084 453.508 211.883 453.507 211.681C453.51 211.285 453.368 210.902 453.108 210.605C452.983 210.463 452.831 210.348 452.66 210.268C452.481 210.183 452.285 210.14 452.087 210.142C451.883 210.14 451.681 210.182 451.496 210.267C451.322 210.346 451.168 210.461 451.041 210.605C450.781 210.902 450.64 211.285 450.643 211.68C450.642 211.883 450.677 212.084 450.748 212.274C450.814 212.453 450.913 212.619 451.041 212.761C451.169 212.902 451.323 213.014 451.495 213.093C451.681 213.178 451.883 213.221 452.087 213.218Z" fill="#E91E63" />
                      <path d="M458.992 211.143C459.258 211.218 459.507 211.299 459.739 211.387C459.957 211.466 460.162 211.576 460.35 211.712C460.522 211.839 460.665 212.003 460.767 212.193C460.878 212.418 460.932 212.667 460.923 212.918C460.933 213.234 460.86 213.547 460.711 213.825C460.569 214.071 460.368 214.277 460.125 214.425C459.859 214.586 459.566 214.698 459.26 214.756C458.913 214.825 458.561 214.858 458.208 214.856C457.352 214.856 456.678 214.669 456.184 214.294C455.69 213.918 455.542 213.381 455.542 212.68H457.311C457.311 212.997 457.4 213.224 457.579 213.362C457.78 213.506 458.023 213.579 458.27 213.568C458.467 213.577 458.663 213.531 458.836 213.437C458.909 213.392 458.968 213.328 459.006 213.252C459.044 213.176 459.061 213.091 459.054 213.006C459.06 212.903 459.026 212.803 458.961 212.724C458.88 212.64 458.782 212.572 458.675 212.524C458.514 212.449 458.347 212.387 458.176 212.337C457.973 212.274 457.73 212.197 457.448 212.105C457.199 212.03 456.962 211.949 456.738 211.862C456.528 211.782 456.329 211.675 456.147 211.543C455.977 211.418 455.838 211.255 455.742 211.068C455.635 210.841 455.583 210.593 455.592 210.342C455.592 209.717 455.831 209.255 456.308 208.955C456.786 208.654 457.431 208.504 458.245 208.504C458.631 208.498 459.015 208.55 459.385 208.66C459.681 208.748 459.956 208.894 460.194 209.092C460.401 209.269 460.565 209.491 460.674 209.742C460.782 209.995 460.837 210.267 460.836 210.542H458.955C458.968 210.331 458.899 210.122 458.762 209.961C458.683 209.887 458.59 209.83 458.488 209.795C458.386 209.759 458.278 209.746 458.17 209.754C457.995 209.75 457.822 209.796 457.672 209.886C457.603 209.928 457.547 209.988 457.51 210.059C457.473 210.131 457.455 210.211 457.46 210.292C457.457 210.391 457.493 210.488 457.56 210.561C457.644 210.644 457.744 210.71 457.853 210.755C458.009 210.823 458.169 210.882 458.332 210.93C458.523 210.989 458.743 211.06 458.992 211.143Z" fill="#E91E63" />
                    </g>
                  </g>
                </g>
              </g>
            </g>
          </g>
        </g>
        <g filter="url(#filter3_d_4685_44832)">
          <g clip-path="url(#clip3_4685_44832)">
            <g filter="url(#filter4_d_4685_44832)">
              <rect x="224" y="175" width="60" height="60" fill="#FFFFFF" />
            </g>
            <g clip-path="url(#clip4_4685_44832)">
              <g>
                <mask style="mask-type:luminance" maskUnits="userSpaceOnUse" x="232" y="182" width="45" height="45">
                  <g>
                    <path d="M232 182H277V227H232V182Z" fill="#FFFFFF" />
                  </g>
                </mask>
                <g mask="url(#mask3_4685_44832)">
                  <g>
                    <path d="M253.387 203.542H232V182.159H253.387V203.542Z" fill="#F1511B" />
                    <path d="M277 203.542H255.614V182.159H277V203.542Z" fill="#80CC28" />
                    <path d="M253.386 227.159H232V205.776H253.386V227.159Z" fill="#00ADEF" />
                    <path d="M277 227.159H255.614V205.776H277V227.159Z" fill="#FBBC09" />
                  </g>
                </g>
              </g>
            </g>
          </g>
        </g>
        <g>
          <g filter="url(#filter5_d_4685_44832)">
            <rect x="52" y="126" width="60" height="60" rx="4" fill="#FFFFFF" />
            <g>
              <path d="M64.8531 160.275C64.8531 161.991 65.2297 163.308 65.7219 164.105C66.3672 165.148 67.3297 165.591 68.3109 165.591C69.5766 165.591 70.7344 165.277 72.9656 162.191C74.7531 159.717 76.8594 156.245 78.2766 154.069L80.6765 150.381C82.3437 147.82 84.2734 144.973 86.4859 143.044C88.2922 141.469 90.2406 140.594 92.2015 140.594C95.4937 140.594 98.6297 142.502 101.03 146.08C103.656 149.998 104.931 154.934 104.931 160.028C104.931 163.056 104.334 165.281 103.319 167.039C102.338 168.739 100.425 170.438 97.2078 170.438V165.591C99.9625 165.591 100.65 163.059 100.65 160.163C100.65 156.034 99.6875 151.453 97.5672 148.18C96.0625 145.858 94.1125 144.439 91.9672 144.439C89.6469 144.439 87.7797 146.189 85.6813 149.309C84.5656 150.967 83.4203 152.987 82.1344 155.267L80.7187 157.775C77.875 162.817 77.1547 163.966 75.7328 165.861C73.2406 169.18 71.1125 170.438 68.3109 170.438C64.9875 170.438 62.8859 168.998 61.5844 166.83C60.5219 165.062 60 162.744 60 160.102L64.8531 160.275Z" fill="#0081FB" />
              <path d="M63.8265 146.422C66.0516 142.992 69.2625 140.594 72.9453 140.594C75.0781 140.594 77.1984 141.225 79.4125 143.033C81.8344 145.009 84.4156 148.264 87.6359 153.628L88.7906 155.553C91.5781 160.197 93.1641 162.586 94.0922 163.712C95.2859 165.159 96.1219 165.591 97.2078 165.591C99.9625 165.591 100.65 163.059 100.65 160.163L104.931 160.028C104.931 163.056 104.334 165.281 103.319 167.039C102.337 168.739 100.425 170.438 97.2078 170.438C95.2078 170.438 93.4359 170.003 91.4766 168.155C89.9703 166.736 88.2093 164.216 86.8547 161.95L82.825 155.219C80.8031 151.841 78.9484 149.322 77.875 148.181C76.7203 146.955 75.2359 145.473 72.8672 145.473C70.95 145.473 69.3218 146.819 67.9593 148.877L63.8265 146.422Z" fill="url(#paint0_linear_4685_44832)" />
              <path d="M72.8672 145.473C70.95 145.473 69.3219 146.819 67.9594 148.877C66.0328 151.784 64.8531 156.116 64.8531 160.275C64.8531 161.991 65.2297 163.308 65.7219 164.105L61.5844 166.83C60.5219 165.063 60 162.744 60 160.102C60 155.297 61.3187 150.289 63.8266 146.422C66.0515 142.992 69.2625 140.594 72.9453 140.594L72.8672 145.473Z" fill="url(#paint1_linear_4685_44832)" />
            </g>
          </g>
        </g>
        <g filter="url(#filter6_d_4685_44832)">
          <g clip-path="url(#clip5_4685_44832)">
            <g filter="url(#filter7_d_4685_44832)">
              <rect x="142" y="14" width="60" height="60" fill="#FFFFFF" />
            </g>
            <path d="M172.5 66C172.5 62.8874 171.9 59.9624 170.7 57.225C169.538 54.4876 167.944 52.1063 165.919 50.0813C163.894 48.0562 161.512 46.4624 158.775 45.3C156.038 44.0999 153.113 43.5 150 43.5C153.113 43.5 156.038 42.9187 158.775 41.7563C161.512 40.5562 163.894 38.9438 165.919 36.9187C167.944 34.8937 169.538 32.5125 170.7 29.775C171.9 27.0375 172.5 24.1125 172.5 21C172.5 24.1125 173.081 27.0375 174.244 29.775C175.444 32.5125 177.056 34.8937 179.081 36.9187C181.106 38.9438 183.488 40.5562 186.225 41.7563C188.962 42.9187 191.887 43.5 195 43.5C191.887 43.5 188.962 44.0999 186.225 45.3C183.488 46.4624 181.106 48.0562 179.081 50.0813C177.056 52.1063 175.444 54.4876 174.244 57.225C173.081 59.9624 172.5 62.8874 172.5 66Z" fill="url(#paint2_radial_4685_44832)" />
          </g>
        </g>
        <g>
          <g filter="url(#filter8_d_4685_44832)">
            <rect x="298" y="45" width="60" height="60" rx="4" fill="#FFFFFF" />
          </g>
          <g clip-path="url(#clip6_4685_44832)">
            <g>
              <mask style="mask-type:luminance" maskUnits="userSpaceOnUse" x="306" y="52" width="45" height="45">
                <g>
                  <path d="M351 52H306V97H351V52Z" fill="#FFFFFF" />
                </g>
              </mask>
              <g mask="url(#mask4_4685_44832)">
                <g>
                  <path d="M338.143 58.4285H331.232L343.607 89.7678H350.357L338.143 58.4285ZM318.214 58.4285L306 89.7678H312.911L315.643 83.1785H328.5L331.071 89.607H337.982L325.446 58.4285H318.375H318.214ZM317.571 77.3928L321.75 66.3035L326.089 77.3928H317.732H317.571Z" fill="#181818" />
                </g>
              </g>
            </g>
          </g>
        </g>
        <g>
          <g filter="url(#filter9_d_4685_44832)">
            <rect x="165" y="304" width="60" height="60" rx="4" fill="#FFFFFF" />
            <g clip-path="url(#clip7_4685_44832)">
              <path fill-rule="evenodd" clip-rule="evenodd" d="M173 317.75V349.25C173 352.977 176.022 356 179.75 356H211.25C214.978 356 218 352.977 218 349.25V317.75C218 314.022 214.978 311 211.25 311H179.75C176.022 311 173 314.022 173 317.75ZM200 311V320C200 329.94 208.06 338 218 338H209C199.06 338 191.003 346.055 191 355.995V347C191 337.06 182.94 329 173 329H182C191.94 329 200 320.94 200 311Z" fill="url(#paint3_radial_4685_44832)" />
            </g>
          </g>
        </g>
      </g>
    </g>
  </g>
  <defs>
    <filter id="filter0_d_4685_44832" x="334" y="345" width="92" height="92" filterUnits="userSpaceOnUse" color-interpolation-filters="sRGB">
      <feFlood flood-opacity="0" result="BackgroundImageFix" />
      <feColorMatrix in="SourceAlpha" type="matrix" values="0 0 0 0 0 0 0 0 0 0 0 0 0 0 0 0 0 0 127 0" result="hardAlpha" />
      <feOffset dy="2" />
      <feGaussianBlur stdDeviation="8" />
      <feColorMatrix type="matrix" values="0 0 0 0 0 0 0 0 0 0 0 0 0 0 0 0 0 0 0.36 0" />
      <feBlend mode="normal" in2="BackgroundImageFix" result="effect1_dropShadow_4685_44832" />
      <feBlend mode="normal" in="SourceGraphic" in2="effect1_dropShadow_4685_44832" result="shape" />
    </filter>
    <filter id="filter1_d_4685_44832" x="12" y="304" width="92" height="92" filterUnits="userSpaceOnUse" color-interpolation-filters="sRGB">
      <feFlood flood-opacity="0" result="BackgroundImageFix" />
      <feColorMatrix in="SourceAlpha" type="matrix" values="0 0 0 0 0 0 0 0 0 0 0 0 0 0 0 0 0 0 127 0" result="hardAlpha" />
      <feOffset dy="2" />
      <feGaussianBlur stdDeviation="8" />
      <feColorMatrix type="matrix" values="0 0 0 0 0 0 0 0 0 0 0 0 0 0 0 0 0 0 0.36 0" />
      <feBlend mode="normal" in2="BackgroundImageFix" result="effect1_dropShadow_4685_44832" />
      <feBlend mode="normal" in="SourceGraphic" in2="effect1_dropShadow_4685_44832" result="shape" />
    </filter>
    <filter id="filter2_d_4685_44832" x="392" y="167" width="92" height="92" filterUnits="userSpaceOnUse" color-interpolation-filters="sRGB">
      <feFlood flood-opacity="0" result="BackgroundImageFix" />
      <feColorMatrix in="SourceAlpha" type="matrix" values="0 0 0 0 0 0 0 0 0 0 0 0 0 0 0 0 0 0 127 0" result="hardAlpha" />
      <feOffset dy="2" />
      <feGaussianBlur stdDeviation="8" />
      <feColorMatrix type="matrix" values="0 0 0 0 0 0 0 0 0 0 0 0 0 0 0 0 0 0 0.36 0" />
      <feBlend mode="normal" in2="BackgroundImageFix" result="effect1_dropShadow_4685_44832" />
      <feBlend mode="normal" in="SourceGraphic" in2="effect1_dropShadow_4685_44832" result="shape" />
    </filter>
    <filter id="filter3_d_4685_44832" x="208" y="161" width="92" height="92" filterUnits="userSpaceOnUse" color-interpolation-filters="sRGB">
      <feFlood flood-opacity="0" result="BackgroundImageFix" />
      <feColorMatrix in="SourceAlpha" type="matrix" values="0 0 0 0 0 0 0 0 0 0 0 0 0 0 0 0 0 0 127 0" result="hardAlpha" />
      <feOffset dy="2" />
      <feGaussianBlur stdDeviation="8" />
      <feColorMatrix type="matrix" values="0 0 0 0 0 0 0 0 0 0 0 0 0 0 0 0 0 0 0.36 0" />
      <feBlend mode="normal" in2="BackgroundImageFix" result="effect1_dropShadow_4685_44832" />
      <feBlend mode="normal" in="SourceGraphic" in2="effect1_dropShadow_4685_44832" result="shape" />
    </filter>
    <filter id="filter4_d_4685_44832" x="208" y="161" width="92" height="92" filterUnits="userSpaceOnUse" color-interpolation-filters="sRGB">
      <feFlood flood-opacity="0" result="BackgroundImageFix" />
      <feColorMatrix in="SourceAlpha" type="matrix" values="0 0 0 0 0 0 0 0 0 0 0 0 0 0 0 0 0 0 127 0" result="hardAlpha" />
      <feOffset dy="2" />
      <feGaussianBlur stdDeviation="8" />
      <feColorMatrix type="matrix" values="0 0 0 0 0 0 0 0 0 0 0 0 0 0 0 0 0 0 0.36 0" />
      <feBlend mode="normal" in2="BackgroundImageFix" result="effect1_dropShadow_4685_44832" />
      <feBlend mode="normal" in="SourceGraphic" in2="effect1_dropShadow_4685_44832" result="shape" />
    </filter>
    <filter id="filter5_d_4685_44832" x="36" y="112" width="92" height="92" filterUnits="userSpaceOnUse" color-interpolation-filters="sRGB">
      <feFlood flood-opacity="0" result="BackgroundImageFix" />
      <feColorMatrix in="SourceAlpha" type="matrix" values="0 0 0 0 0 0 0 0 0 0 0 0 0 0 0 0 0 0 127 0" result="hardAlpha" />
      <feOffset dy="2" />
      <feGaussianBlur stdDeviation="8" />
      <feColorMatrix type="matrix" values="0 0 0 0 0 0 0 0 0 0 0 0 0 0 0 0 0 0 0.36 0" />
      <feBlend mode="normal" in2="BackgroundImageFix" result="effect1_dropShadow_4685_44832" />
      <feBlend mode="normal" in="SourceGraphic" in2="effect1_dropShadow_4685_44832" result="shape" />
    </filter>
    <filter id="filter6_d_4685_44832" x="126" y="0" width="92" height="92" filterUnits="userSpaceOnUse" color-interpolation-filters="sRGB">
      <feFlood flood-opacity="0" result="BackgroundImageFix" />
      <feColorMatrix in="SourceAlpha" type="matrix" values="0 0 0 0 0 0 0 0 0 0 0 0 0 0 0 0 0 0 127 0" result="hardAlpha" />
      <feOffset dy="2" />
      <feGaussianBlur stdDeviation="8" />
      <feColorMatrix type="matrix" values="0 0 0 0 0 0 0 0 0 0 0 0 0 0 0 0 0 0 0.36 0" />
      <feBlend mode="normal" in2="BackgroundImageFix" result="effect1_dropShadow_4685_44832" />
      <feBlend mode="normal" in="SourceGraphic" in2="effect1_dropShadow_4685_44832" result="shape" />
    </filter>
    <filter id="filter7_d_4685_44832" x="126" y="0" width="92" height="92" filterUnits="userSpaceOnUse" color-interpolation-filters="sRGB">
      <feFlood flood-opacity="0" result="BackgroundImageFix" />
      <feColorMatrix in="SourceAlpha" type="matrix" values="0 0 0 0 0 0 0 0 0 0 0 0 0 0 0 0 0 0 127 0" result="hardAlpha" />
      <feOffset dy="2" />
      <feGaussianBlur stdDeviation="8" />
      <feColorMatrix type="matrix" values="0 0 0 0 0 0 0 0 0 0 0 0 0 0 0 0 0 0 0.36 0" />
      <feBlend mode="normal" in2="BackgroundImageFix" result="effect1_dropShadow_4685_44832" />
      <feBlend mode="normal" in="SourceGraphic" in2="effect1_dropShadow_4685_44832" result="shape" />
    </filter>
    <filter id="filter8_d_4685_44832" x="282" y="31" width="92" height="92" filterUnits="userSpaceOnUse" color-interpolation-filters="sRGB">
      <feFlood flood-opacity="0" result="BackgroundImageFix" />
      <feColorMatrix in="SourceAlpha" type="matrix" values="0 0 0 0 0 0 0 0 0 0 0 0 0 0 0 0 0 0 127 0" result="hardAlpha" />
      <feOffset dy="2" />
      <feGaussianBlur stdDeviation="8" />
      <feColorMatrix type="matrix" values="0 0 0 0 0 0 0 0 0 0 0 0 0 0 0 0 0 0 0.36 0" />
      <feBlend mode="normal" in2="BackgroundImageFix" result="effect1_dropShadow_4685_44832" />
      <feBlend mode="normal" in="SourceGraphic" in2="effect1_dropShadow_4685_44832" result="shape" />
    </filter>
    <filter id="filter9_d_4685_44832" x="149" y="290" width="92" height="92" filterUnits="userSpaceOnUse" color-interpolation-filters="sRGB">
      <feFlood flood-opacity="0" result="BackgroundImageFix" />
      <feColorMatrix in="SourceAlpha" type="matrix" values="0 0 0 0 0 0 0 0 0 0 0 0 0 0 0 0 0 0 127 0" result="hardAlpha" />
      <feOffset dy="2" />
      <feGaussianBlur stdDeviation="8" />
      <feColorMatrix type="matrix" values="0 0 0 0 0 0 0 0 0 0 0 0 0 0 0 0 0 0 0.36 0" />
      <feBlend mode="normal" in2="BackgroundImageFix" result="effect1_dropShadow_4685_44832" />
      <feBlend mode="normal" in="SourceGraphic" in2="effect1_dropShadow_4685_44832" result="shape" />
    </filter>
    <linearGradient id="paint0_linear_4685_44832" x1="69.5312" y1="158.875" x2="100.469" y2="160.438" gradientUnits="userSpaceOnUse">
      <stop stop-color="#0064E1" />
      <stop offset="0.4" stop-color="#0064E1" />
      <stop offset="0.83" stop-color="#0073EE" />
      <stop offset="1" stop-color="#0082FB" />
    </linearGradient>
    <linearGradient id="paint1_linear_4685_44832" x1="67.0313" y1="162.312" x2="67.0313" y2="150.906" gradientUnits="userSpaceOnUse">
      <stop stop-color="#0082FB" />
      <stop offset="1" stop-color="#0064E0" />
    </linearGradient>
    <radialGradient id="paint2_radial_4685_44832" cx="0" cy="0" r="1" gradientUnits="userSpaceOnUse" gradientTransform="translate(154.466 39.2885) rotate(18.6832) scale(47.8969 383.684)">
      <stop offset="0.0671246" stop-color="#9168C0" />
      <stop offset="0.342551" stop-color="#5684D1" />
      <stop offset="0.672076" stop-color="#1BA1E3" />
    </radialGradient>
    <radialGradient id="paint3_radial_4685_44832" cx="0" cy="0" r="1" gradientUnits="userSpaceOnUse" gradientTransform="translate(193.545 332.353) rotate(45) scale(28.2274 38.4176)">
      <stop stop-color="#83B9F9" />
      <stop offset="1" stop-color="#0078D4" />
    </radialGradient>
    <clipPath id="clip0_4685_44832">
      <rect width="42.75" height="45" fill="#FFFFFF" transform="translate(359 366)" />
    </clipPath>
    <clipPath id="clip1_4685_44832">
      <rect width="45" height="45" fill="#FFFFFF" transform="translate(36 325)" />
    </clipPath>
    <clipPath id="clip2_4685_44832">
      <rect width="45" height="45" fill="#FFFFFF" transform="translate(416 188)" />
    </clipPath>
    <clipPath id="clip3_4685_44832">
      <rect x="224" y="175" width="60" height="60" rx="4" fill="#FFFFFF" />
    </clipPath>
    <clipPath id="clip4_4685_44832">
      <rect width="45" height="45" fill="#FFFFFF" transform="translate(232 182)" />
    </clipPath>
    <clipPath id="clip5_4685_44832">
      <rect x="142" y="14" width="60" height="60" rx="4" fill="#FFFFFF" />
    </clipPath>
    <clipPath id="clip6_4685_44832">
      <rect width="45" height="45" fill="#FFFFFF" transform="translate(306 52)" />
    </clipPath>
    <clipPath id="clip7_4685_44832">
      <rect width="45" height="45" fill="#FFFFFF" transform="translate(173 311)" />
    </clipPath>
  </defs>
</svg>