<svg width="492" height="526" viewBox="0 0 492 526" fill="none" xmlns="http://www.w3.org/2000/svg">
  <g>
    <g>
      <rect x="80.5" y="80.5" width="331" height="365" rx="6.5" fill="var(--vscode-breadcrumb-background, #181818)" />
      <rect x="80.5" y="80.5" width="331" height="365" rx="6.5" stroke="var(--vscode-activityBar-background, #313131)" />
      <g>
        <g clip-path="url(#clip0_4454_107237)">
          <g clip-path="url(#clip1_4454_107237)">
            <g>
              <g>
                <g>
                  <g>
                    <g>
                      <rect x="100.5" y="92.5" width="23" height="23" rx="11.5" fill="var(--vscode-badge-background, #B3B3B3)" />
                      <rect x="100.5" y="92.5" width="23" height="23" rx="11.5" stroke="var(--vscode-activityBar-background, #313131)" />
                      <path d="M110.364 100.954V105.461C110.364 106.423 110.955 107.077 112 107.077C113.045 107.077 113.636 106.423 113.636 105.461V100.954H114.896V105.573C114.896 107.111 113.782 108.176 112 108.176C110.218 108.176 109.104 107.111 109.104 105.573V100.954H110.364Z" fill="var(--vscode-badge-foreground, #2B2B2B)" />
                    </g>
                    <path d="M132.549 99.5449V104.953C132.549 106.107 133.258 106.893 134.512 106.893C135.766 106.893 136.475 106.107 136.475 104.953V99.5449H137.986V105.088C137.986 106.934 136.65 108.211 134.512 108.211C132.373 108.211 131.037 106.934 131.037 105.088V99.5449H132.549ZM139.768 103.424C139.768 102.275 140.822 101.473 142.334 101.473C143.857 101.473 144.812 102.141 144.918 103.295H143.553C143.447 102.844 143.02 102.551 142.34 102.551C141.678 102.551 141.18 102.873 141.18 103.348C141.18 103.711 141.484 103.939 142.129 104.092L143.26 104.344C144.484 104.625 145.053 105.146 145.053 106.09C145.053 107.314 143.922 108.129 142.322 108.129C140.723 108.129 139.715 107.438 139.604 106.283H141.039C141.18 106.758 141.631 107.051 142.357 107.051C143.09 107.051 143.6 106.717 143.6 106.23C143.6 105.867 143.324 105.633 142.715 105.492L141.578 105.229C140.348 104.947 139.768 104.385 139.768 103.424ZM150.701 106.248H152.078C151.814 107.402 150.742 108.129 149.23 108.129C147.344 108.129 146.207 106.875 146.207 104.824C146.207 102.768 147.361 101.473 149.219 101.473C151.047 101.473 152.143 102.686 152.143 104.695V105.158H147.666V105.234C147.701 106.318 148.316 106.998 149.271 106.998C149.992 106.998 150.49 106.729 150.701 106.248ZM149.213 102.604C148.346 102.604 147.736 103.23 147.672 104.191H150.689C150.66 103.219 150.086 102.604 149.213 102.604ZM153.602 108V101.596H155.002V102.592H155.102C155.277 101.959 155.969 101.49 156.795 101.49C157.006 101.49 157.264 101.514 157.398 101.549V102.873C157.287 102.832 156.9 102.791 156.654 102.791C155.711 102.791 155.055 103.377 155.055 104.279V108H153.602ZM163.457 108H161.945V99.5449H163.457V108ZM165.391 108V101.596H166.791V102.621H166.891C167.195 101.906 167.84 101.473 168.795 101.473C170.225 101.473 171.004 102.334 171.004 103.857V108H169.551V104.197C169.551 103.201 169.141 102.703 168.256 102.703C167.389 102.703 166.844 103.307 166.844 104.268V108H165.391ZM176.219 101.49C177.842 101.49 178.861 102.75 178.861 104.801C178.861 106.834 177.854 108.105 176.236 108.105C175.316 108.105 174.607 107.707 174.279 107.027H174.18V110.127H172.727V101.596H174.127V102.656H174.227C174.596 101.93 175.34 101.49 176.219 101.49ZM175.762 106.898C176.77 106.898 177.367 106.113 177.367 104.801C177.367 103.488 176.764 102.703 175.768 102.703C174.777 102.703 174.156 103.506 174.15 104.801C174.156 106.096 174.771 106.898 175.762 106.898ZM185.898 101.596V108H184.498V106.98H184.398C184.088 107.713 183.461 108.129 182.482 108.129C181.082 108.129 180.262 107.256 180.262 105.756V101.596H181.715V105.404C181.715 106.4 182.119 106.881 182.986 106.881C183.93 106.881 184.445 106.295 184.445 105.328V101.596H185.898ZM188.143 100.025H189.59V101.637H190.961V102.768H189.59V105.955C189.59 106.594 189.859 106.881 190.469 106.881C190.674 106.881 190.785 106.869 190.961 106.852V107.965C190.75 108.006 190.48 108.029 190.199 108.029C188.729 108.029 188.143 107.537 188.143 106.301V102.768H187.129V101.637H188.143V100.025Z" fill="var(--vscode-breadcrumb-foreground, #CCCCCC)" />
                  </g>
                </g>
                <g>
                  <rect x="100" y="132" width="280" height="8" rx="4" fill="var(--vscode-editorOverviewRuler-bracketMatchForeground, #313131)" />
                  <rect x="100" y="152" width="140" height="8" rx="4" fill="var(--vscode-editorOverviewRuler-bracketMatchForeground, #313131)" />
                </g>
              </g>
            </g>
          </g>
          <g>
            <mask fill="var(--vscode-activityBar-activeBorder, #FFFFFF)">
              <path d="M80 172H412V364H80V172Z" />
            </mask>
            <path d="M80 173H412V171H80V173Z" fill="var(--vscode-activityBar-background, #313131)" mask="url(#path-7-inside-1_4454_107237)" />
            <g>
              <g>
                <g>
                  <g>
                    <g>
                      <g>
                        <rect x="100.5" y="184.5" width="23" height="23" rx="11.5" fill="var(--vscode-charts-purple, #A074C4)" />
                        <rect x="100.5" y="184.5" width="23" height="23" rx="11.5" stroke="var(--vscode-activityBar-background, #313131)" />
                        <path d="M112.361 200L111.766 198.179H109.173L108.567 200H107.293L109.793 192.954H111.209L113.714 200H112.361ZM110.433 194.277L109.466 197.207H111.473L110.516 194.277H110.433ZM116.185 200H114.925V192.954H116.185V200Z" fill="var(--vscode-quickInputList-focusIconForeground, #D7D7D7)" />
                      </g>
                    </g>
                    <path d="M130.656 197.709H132.133C132.227 198.482 132.977 198.975 134.049 198.975C135.045 198.975 135.766 198.453 135.766 197.732C135.766 197.117 135.303 196.742 134.219 196.49L133.123 196.238C131.588 195.887 130.867 195.131 130.867 193.877C130.867 192.354 132.121 191.334 134.014 191.334C135.789 191.334 137.072 192.348 137.143 193.795H135.695C135.59 193.039 134.934 192.564 134.008 192.564C133.035 192.564 132.391 193.045 132.391 193.777C132.391 194.357 132.818 194.691 133.867 194.938L134.84 195.16C136.557 195.553 137.277 196.268 137.277 197.551C137.277 199.191 136.006 200.211 133.955 200.211C132.016 200.211 130.732 199.238 130.656 197.709ZM139.527 202.32C139.439 202.32 139.047 202.314 138.953 202.297V201.143C139.035 201.154 139.252 201.16 139.352 201.16C139.967 201.16 140.312 200.926 140.5 200.322L140.576 200.023L138.285 193.596H139.879L141.379 198.623H141.479L142.973 193.596H144.508L142.193 200.223C141.648 201.799 140.963 202.32 139.527 202.32ZM145.439 195.424C145.439 194.275 146.494 193.473 148.006 193.473C149.529 193.473 150.484 194.141 150.59 195.295H149.225C149.119 194.844 148.691 194.551 148.012 194.551C147.35 194.551 146.852 194.873 146.852 195.348C146.852 195.711 147.156 195.939 147.801 196.092L148.932 196.344C150.156 196.625 150.725 197.146 150.725 198.09C150.725 199.314 149.594 200.129 147.994 200.129C146.395 200.129 145.387 199.438 145.275 198.283H146.711C146.852 198.758 147.303 199.051 148.029 199.051C148.762 199.051 149.271 198.717 149.271 198.23C149.271 197.867 148.996 197.633 148.387 197.492L147.25 197.229C146.02 196.947 145.439 196.385 145.439 195.424ZM152.611 192.025H154.059V193.637H155.43V194.768H154.059V197.955C154.059 198.594 154.328 198.881 154.938 198.881C155.143 198.881 155.254 198.869 155.43 198.852V199.965C155.219 200.006 154.949 200.029 154.668 200.029C153.197 200.029 152.611 199.537 152.611 198.301V194.768H151.598V193.637H152.611V192.025ZM161.002 198.248H162.379C162.115 199.402 161.043 200.129 159.531 200.129C157.645 200.129 156.508 198.875 156.508 196.824C156.508 194.768 157.662 193.473 159.52 193.473C161.348 193.473 162.443 194.686 162.443 196.695V197.158H157.967V197.234C158.002 198.318 158.617 198.998 159.572 198.998C160.293 198.998 160.791 198.729 161.002 198.248ZM159.514 194.604C158.646 194.604 158.037 195.23 157.973 196.191H160.99C160.961 195.219 160.387 194.604 159.514 194.604ZM163.902 200V193.596H165.303V194.627H165.402C165.678 193.906 166.334 193.473 167.184 193.473C168.068 193.473 168.684 193.918 168.953 194.627H169.053C169.369 193.93 170.107 193.473 170.998 193.473C172.281 193.473 173.055 194.264 173.055 195.594V200H171.607V195.951C171.607 195.119 171.215 194.703 170.436 194.703C169.68 194.703 169.182 195.266 169.182 195.998V200H167.77V195.846C167.77 195.137 167.324 194.703 166.609 194.703C165.889 194.703 165.355 195.307 165.355 196.104V200H163.902ZM181.773 191.334C184.234 191.334 185.77 193.039 185.77 195.77C185.77 198.494 184.24 200.211 181.773 200.211C179.295 200.211 177.771 198.494 177.771 195.77C177.771 193.039 179.318 191.334 181.773 191.334ZM181.773 192.641C180.273 192.641 179.318 193.854 179.318 195.77C179.318 197.674 180.25 198.904 181.773 198.904C183.279 198.904 184.229 197.674 184.229 195.77C184.229 193.854 183.273 192.641 181.773 192.641ZM192.93 193.596V200H191.529V198.98H191.43C191.119 199.713 190.492 200.129 189.514 200.129C188.113 200.129 187.293 199.256 187.293 197.756V193.596H188.746V197.404C188.746 198.4 189.15 198.881 190.018 198.881C190.961 198.881 191.477 198.295 191.477 197.328V193.596H192.93ZM195.174 192.025H196.621V193.637H197.992V194.768H196.621V197.955C196.621 198.594 196.891 198.881 197.5 198.881C197.705 198.881 197.816 198.869 197.992 198.852V199.965C197.781 200.006 197.512 200.029 197.23 200.029C195.76 200.029 195.174 199.537 195.174 198.301V194.768H194.16V193.637H195.174V192.025ZM202.938 193.49C204.561 193.49 205.58 194.75 205.58 196.801C205.58 198.834 204.572 200.105 202.955 200.105C202.035 200.105 201.326 199.707 200.998 199.027H200.898V202.127H199.445V193.596H200.846V194.656H200.945C201.314 193.93 202.059 193.49 202.938 193.49ZM202.48 198.898C203.488 198.898 204.086 198.113 204.086 196.801C204.086 195.488 203.482 194.703 202.486 194.703C201.496 194.703 200.875 195.506 200.869 196.801C200.875 198.096 201.49 198.898 202.48 198.898ZM212.617 193.596V200H211.217V198.98H211.117C210.807 199.713 210.18 200.129 209.201 200.129C207.801 200.129 206.98 199.256 206.98 197.756V193.596H208.434V197.404C208.434 198.4 208.838 198.881 209.705 198.881C210.648 198.881 211.164 198.295 211.164 197.328V193.596H212.617ZM214.861 192.025H216.309V193.637H217.68V194.768H216.309V197.955C216.309 198.594 216.578 198.881 217.188 198.881C217.393 198.881 217.504 198.869 217.68 198.852V199.965C217.469 200.006 217.199 200.029 216.918 200.029C215.447 200.029 214.861 199.537 214.861 198.301V194.768H213.848V193.637H214.861V192.025Z" fill="var(--vscode-breadcrumb-foreground, #CCCCCC)" />
                  </g>
                </g>
                <g>
                  <rect x="100" y="224" width="213" height="8" rx="4" fill="var(--vscode-editorOverviewRuler-bracketMatchForeground, #9D9D9D)" />
                  <rect x="100" y="244" width="286" height="8" rx="4" fill="var(--vscode-editorOverviewRuler-bracketMatchForeground, #9D9D9D)" />
                  <rect x="100" y="264" width="261" height="8" rx="4" fill="var(--vscode-editorOverviewRuler-bracketMatchForeground, #9D9D9D)" />
                  <rect x="100" y="284" width="213" height="8" rx="4" fill="var(--vscode-editorOverviewRuler-bracketMatchForeground, #9D9D9D)" />
                  <rect x="100" y="304" width="261" height="8" rx="4" fill="var(--vscode-editorOverviewRuler-bracketMatchForeground, #9D9D9D)" />
                  <rect x="100" y="324" width="213" height="8" rx="4" fill="var(--vscode-editorOverviewRuler-bracketMatchForeground, #9D9D9D)" />
                  <rect x="100" y="344" width="138" height="8" rx="4" fill="var(--vscode-editorOverviewRuler-bracketMatchForeground, #9D9D9D)" />
                </g>
              </g>
            </g>
          </g>
        </g>
        <g>
          <rect x="100" y="376" width="132" height="8" rx="4" fill="var(--vscode-editorOverviewRuler-bracketMatchForeground, #313131)" />
          <g>
            <rect x="100.5" y="396.5" width="291" height="37" rx="3.5" fill="var(--vscode-titleBar-activeBackground, #313131)" />
            <rect x="100.5" y="396.5" width="291" height="37" rx="3.5" stroke="var(--vscode-editorOverviewRuler-commonContentForeground, #616161)" />
            <g>
              <g>
                <g>
                  <path d="M340.013 408.92L340.76 408.493L353.987 414.467V415.373L340.76 421.347L340.013 420.92L341.56 415L340.013 408.92ZM342.627 415.48L341.347 420.12L352.493 414.893L341.347 409.827L342.627 414.413L348.013 414.52V415.48H342.627Z" fill="var(--vscode-breadcrumb-foreground, #CCCCCC)" />
                </g>
              </g>
              <g>
                <g>
                  <path d="M375.027 409.987H378.013V411H377V420.013L375.987 420.973H369L367.987 420.013V411H367.027V409.987H370.013V408.973C370.013 408.724 370.102 408.511 370.28 408.333C370.493 408.12 370.742 408.013 371.027 408.013H374.013C374.298 408.013 374.529 408.12 374.707 408.333C374.92 408.511 375.027 408.724 375.027 408.973V409.987ZM374.013 408.973H371.027V409.987H374.013V408.973ZM369 420.013H375.987V411H369V420.013ZM371.027 412.013H370.013V419H371.027V412.013ZM371.987 412.013H373V419H371.987V412.013ZM374.013 412.013H375.027V419H374.013V412.013Z" fill="var(--vscode-breadcrumb-foreground, #CCCCCC)" />
                </g>
              </g>
            </g>
          </g>
        </g>
      </g>
    </g>
  </g>
  <defs>
    <clipPath id="clip0_4454_107237">
      <rect width="332" height="284" fill="var(--vscode-activityBar-activeBorder, #FFFFFF)" transform="translate(80 80)" />
    </clipPath>
    <clipPath id="clip1_4454_107237">
      <rect width="332" height="92" fill="var(--vscode-activityBar-activeBorder, #FFFFFF)" transform="translate(80 80)" />
    </clipPath>
  </defs>
</svg>