<svg width="24" height="24" viewBox="0 0 24 24" fill="none" xmlns="http://www.w3.org/2000/svg">
<g clip-path="url(#clip0_2522_21)">
<path d="M18.6225 5.124C18.882 4.8645 19.2 4.668 19.5495 4.5525L20.697 4.179C20.7855 4.1475 20.862 4.0905 20.916 4.014C20.97 3.9375 20.9985 3.846 20.9985 3.753C20.9985 3.66 20.97 3.5685 20.916 3.492C20.862 3.4155 20.7855 3.357 20.697 3.327L20.6745 3.321L19.527 2.9475C19.2885 2.868 19.065 2.7525 18.864 2.604C18.771 2.535 18.6825 2.4585 18.6 2.376C18.3405 2.1165 18.144 1.7985 18.0285 1.4505L17.655 0.302995C17.6235 0.214495 17.5665 0.137995 17.49 0.0839954C17.4195 0.0344954 17.337 0.00599536 17.2515 0.00149536H17.229C17.1345 0.00149536 17.043 0.0299954 16.9665 0.0839954C16.89 0.137995 16.8315 0.214495 16.8015 0.302995L16.428 1.4505C16.314 1.797 16.122 2.112 15.8655 2.3715C15.828 2.409 15.7905 2.445 15.7515 2.4795C15.519 2.6865 15.2475 2.8455 14.952 2.9475L13.8045 3.321C13.716 3.3525 13.6395 3.4095 13.5855 3.486C13.5315 3.5625 13.5015 3.654 13.5015 3.747C13.5015 3.84 13.53 3.933 13.5855 4.0095C13.641 4.086 13.716 4.1445 13.8045 4.1745L14.952 4.548C14.997 4.563 15.042 4.5795 15.087 4.5975C15.384 4.7175 15.654 4.8945 15.8805 5.1225C16.0155 5.259 16.134 5.409 16.2315 5.5725C16.3215 5.7225 16.395 5.883 16.4505 6.051L16.824 7.19849C16.8555 7.28699 16.9125 7.3635 16.989 7.4175C17.0655 7.4715 17.157 7.5015 17.2515 7.5015H17.2575C17.349 7.5015 17.439 7.4715 17.514 7.4175C17.565 7.3815 17.607 7.335 17.64 7.2825C17.6565 7.2555 17.67 7.22699 17.6805 7.19849L18.054 6.051C18.1695 5.7015 18.366 5.385 18.6255 5.1255L18.6225 5.124Z" fill="#424242"/>
<path fill-rule="evenodd" clip-rule="evenodd" d="M19.5 12.7365V18.75C19.5 19.9905 18.4905 21 17.25 21H9V16.6485L14.115 17.5785C14.3415 17.622 14.5605 17.559 14.73 17.4165C14.901 17.274 15 17.064 15 16.8405V8.25C15 8.004 14.88 7.7745 14.6775 7.6335C14.4735 7.494 14.2185 7.461 13.986 7.548L9 9.4185V4.5015H12.1725C12.0705 4.2615 12 4.011 12 3.7485C12 3.486 12.069 3.2385 12.1695 3.0015H5.25C3.1815 3.0015 1.5 4.6845 1.5 6.7515V18.7515C1.5 20.8185 3.1815 22.5015 5.25 22.5015H17.25C19.3185 22.5015 21 20.8185 21 18.7515V13.5015C20.6145 13.5015 20.244 13.3845 19.9275 13.1625C19.7595 13.044 19.6185 12.8985 19.5 12.7365ZM7.77 15.174C7.599 15.3165 7.5 15.5265 7.5 15.75V21H5.25C4.0095 21 3 19.9905 3 18.75V6.75C3 5.5095 4.0095 4.5 5.25 4.5H7.5V10.5C7.5 10.746 7.62 10.9755 7.8225 11.1165C8.0265 11.256 8.283 11.289 8.514 11.202L13.5 9.3315V15.9405L8.385 15.0105C8.1585 14.9685 7.941 15.033 7.77 15.174Z" fill="#424242"/>
<path d="M23.7585 8.661C23.829 8.685 23.8905 8.7315 23.934 8.793L23.9355 8.79C23.9775 8.8515 24.0015 8.925 24.0015 9C24.0015 9.075 23.979 9.1485 23.9355 9.21C23.892 9.2715 23.8305 9.3165 23.76 9.342L22.842 9.6405C22.563 9.7335 22.3095 9.8895 22.101 10.098C21.8925 10.3065 21.7365 10.56 21.6435 10.839L21.345 11.757C21.321 11.8275 21.2745 11.889 21.213 11.9325C21.1515 11.9745 21.078 11.9985 21.003 11.9985C20.928 11.9985 20.8545 11.976 20.793 11.9325C20.7315 11.889 20.6865 11.8275 20.661 11.757L20.3625 10.839C20.2695 10.56 20.1135 10.305 19.905 10.0965C19.6965 9.888 19.443 9.7305 19.1625 9.6375L18.2445 9.339C18.174 9.315 18.1125 9.2685 18.069 9.207C18.027 9.1455 18.003 9.072 18.003 8.997C18.003 8.922 18.0255 8.8485 18.069 8.787C18.1125 8.727 18.174 8.6805 18.2445 8.655L19.1625 8.3565C19.4385 8.262 19.6875 8.1045 19.893 7.896C20.0985 7.689 20.2515 7.437 20.343 7.1595L20.6415 6.2415C20.6655 6.171 20.712 6.1095 20.7735 6.066C20.835 6.024 20.9085 6 20.9835 6C21.0585 6 21.132 6.0225 21.1935 6.066C21.2535 6.1095 21.3 6.171 21.3255 6.2415L21.624 7.1595C21.717 7.4385 21.873 7.692 22.0815 7.9005C22.29 8.109 22.5435 8.265 22.8225 8.358L23.7405 8.6565L23.7585 8.661Z" fill="#424242"/>
</g>
<defs>
<clipPath id="clip0_2522_21">
<rect width="24" height="24" fill="white"/>
</clipPath>
</defs>
</svg>
