<svg width="16" height="16" viewBox="0 0 16 16" fill="none" xmlns="http://www.w3.org/2000/svg">
<g clip-path="url(#clip0_321_18803)">
<path d="M9.70312 15.9871C9.75755 15.9911 9.81218 15.9941 9.86719 15.9959C9.81221 16.0002 9.75728 15.9986 9.70312 15.9871ZM9.18652 2.38849C9.40952 2.17099 9.76576 2.171 9.98926 2.38849C9.99315 2.3919 9.99659 2.3958 10 2.39923C10.211 2.61672 10.2062 2.9641 9.98926 3.1756L5.24219 7.8299L5.21094 7.86115C4.57697 8.51263 4.591 9.55589 5.24219 10.1902C5.52085 10.4616 5.86927 10.6174 6.22852 10.6629C6.10651 11.0069 6.03102 11.3727 6.00781 11.7527C5.43648 11.6649 4.88535 11.4091 4.44043 10.9764C4.42243 10.9589 4.40471 10.9402 4.38672 10.9217C3.33053 9.83584 3.35496 8.09928 4.44043 7.04279L9.18652 2.38849ZM7.58203 0.815247C8.698 -0.271126 10.4768 -0.271123 11.5928 0.815247C12.2228 1.42774 12.5215 2.3056 12.3955 3.1756C13.2757 3.05075 14.1644 3.34106 14.8008 3.96173L14.835 3.99591C15.9206 5.05244 15.9451 6.78893 14.8887 7.87482L14.835 7.9295L13.1689 9.56134C12.9393 9.2634 12.6695 8.99812 12.3662 8.77521L14.0322 7.1424C14.6836 6.50798 14.6987 5.46579 14.0645 4.81427C14.054 4.80378 14.0427 4.79351 14.0322 4.78302L13.999 4.74982C13.3301 4.09905 12.2647 4.09806 11.5947 4.74786L6.81348 9.43732L6.81152 9.43927L6.74609 9.50372C6.52256 9.72064 6.16616 9.72103 5.94336 9.50372C5.7266 9.29237 5.72212 8.94486 5.93262 8.72736C5.93588 8.72408 5.93968 8.71993 5.94336 8.71661L10.792 3.96075C11.4424 3.32525 11.4548 2.2831 10.8193 1.63263C10.8099 1.6227 10.8 1.61326 10.79 1.60333C10.12 0.951345 9.05328 0.951337 8.38379 1.60333L1.9668 7.89532C1.74327 8.11179 1.38836 8.11215 1.16504 7.89532C0.948421 7.6845 0.943953 7.33741 1.1543 7.11993C1.15765 7.11658 1.16127 7.11166 1.16504 7.10822L7.58203 0.815247ZM12.3955 5.53595C12.6185 5.31845 12.9738 5.31846 13.1973 5.53595C13.2013 5.53945 13.2055 5.54319 13.209 5.54669C13.4197 5.76419 13.4146 6.11066 13.1973 6.32208V6.32111L11.2725 8.20782C10.8727 8.07372 10.4449 7.99984 10 7.99982C9.95957 7.99982 9.91905 8.00156 9.87891 8.00275L12.3955 5.53595Z" fill="#CCCCCC"/>
<path d="M10 9.00031C10.7953 9.00132 11.5577 9.31782 12.1201 9.88019C12.6825 10.4426 12.999 11.205 13 12.0003C13 12.5936 12.8238 13.174 12.4941 13.6673C12.1646 14.1603 11.6963 14.5447 11.1484 14.7718C10.6004 14.9988 9.99685 15.0583 9.41504 14.9427C8.83313 14.8269 8.29845 14.5409 7.87891 14.1214C7.45935 13.7018 7.17338 13.1672 7.05762 12.5853C6.94194 12.0034 7.00149 11.4 7.22852 10.8519C7.45555 10.304 7.83994 9.83571 8.33301 9.50616C8.82634 9.17656 9.40669 9.00031 10 9.00031ZM10.4971 11.3714L11.4473 12.3177L10.4941 13.265L10.8613 13.6341L12 12.5032V12.1341L10.8613 11.0032L10.4971 11.3714ZM8 12.1341V12.5013L9.12891 13.6331L9.49707 13.265L8.55273 12.3177L9.49805 11.3675L9.12891 11.0003L8 12.1341Z" fill="#CCCCCC"/>
</g>
<defs>
<clipPath id="clip0_321_18803">
<rect width="16" height="16" fill="white"/>
</clipPath>
</defs>
</svg>
