<svg width="24" height="24" viewBox="0 0 24 24" fill="none" xmlns="http://www.w3.org/2000/svg">
<path d="M15.9706 9.12982C15.9128 9.05509 15.8502 8.98384 15.7831 8.91655C15.5334 8.66604 15.2285 8.47733 14.8928 8.36547L13.7905 8.00751C13.7056 7.97757 13.632 7.92203 13.58 7.84854C13.5279 7.77506 13.5 7.68726 13.5 7.59725C13.5 7.50723 13.5279 7.41943 13.58 7.34595C13.632 7.27247 13.7056 7.21693 13.7905 7.18698L14.8928 6.82903C15.2238 6.71481 15.5239 6.52564 15.7696 6.2763C16.0086 6.03379 16.1898 5.74076 16.3 5.41898L16.3091 5.39171L16.6674 4.29032C16.6973 4.20543 16.7529 4.13192 16.8265 4.07992C16.9 4.02792 16.9879 4 17.078 4C17.168 4 17.2559 4.02792 17.3294 4.07992C17.403 4.13192 17.4586 4.20543 17.4885 4.29032L17.8468 5.39171C17.9582 5.72655 18.1462 6.03082 18.3959 6.28033C18.6456 6.52984 18.9501 6.71772 19.2852 6.82903L20.3874 7.18698L20.4095 7.19249C20.4944 7.22243 20.568 7.27797 20.62 7.35146C20.6721 7.42494 20.7 7.51274 20.7 7.60275C20.7 7.69277 20.6721 7.78057 20.62 7.85405C20.568 7.92753 20.4944 7.98308 20.4095 8.01302L19.3072 8.37097C18.9721 8.48228 18.6676 8.67016 18.4179 8.91967C18.1682 9.16918 17.9802 9.47345 17.8688 9.80829L17.5106 10.9097C17.5073 10.9188 17.5038 10.9279 17.5 10.9367C17.4684 11.0102 17.4171 11.0737 17.3515 11.1201C17.278 11.1721 17.1901 11.2 17.1 11.2C17.0099 11.2 16.922 11.1721 16.8485 11.1201C16.775 11.0681 16.7194 10.9946 16.6894 10.9097L16.3312 9.80829C16.2503 9.56265 16.1281 9.33331 15.9706 9.12982ZM22.1263 12.1705L21.514 11.9717C21.3278 11.9098 21.1587 11.8055 21.0199 11.6669C20.8812 11.5282 20.7768 11.3592 20.7149 11.1732L20.5159 10.5613C20.4992 10.5141 20.4683 10.4733 20.4275 10.4444C20.3866 10.4155 20.3378 10.4 20.2878 10.4C20.2377 10.4 20.1889 10.4155 20.148 10.4444C20.1072 10.4733 20.0763 10.5141 20.0597 10.5613L19.8606 11.1732C19.8 11.3579 19.6974 11.5261 19.5609 11.6646C19.4244 11.8031 19.2577 11.9082 19.0738 11.9717L18.4614 12.1705C18.4142 12.1872 18.3733 12.218 18.3444 12.2589C18.3155 12.2997 18.3 12.3485 18.3 12.3985C18.3 12.4485 18.3155 12.4973 18.3444 12.5381C18.3733 12.5789 18.4142 12.6098 18.4614 12.6264L19.0738 12.8253C19.2603 12.8874 19.4296 12.9922 19.5684 13.1314C19.7071 13.2706 19.8114 13.4402 19.8729 13.6268L20.0719 14.2387C20.0885 14.2859 20.1194 14.3267 20.1603 14.3556C20.2011 14.3845 20.25 14.4 20.3 14.4C20.35 14.4 20.3989 14.3845 20.4397 14.3556C20.4806 14.3267 20.5114 14.2859 20.5281 14.2387L20.7271 13.6268C20.789 13.4408 20.8935 13.2718 21.0322 13.1331C21.1709 12.9945 21.3401 12.8902 21.5262 12.8283L22.1386 12.6295C22.1858 12.6128 22.2267 12.582 22.2556 12.5411C22.2845 12.5003 22.3 12.4515 22.3 12.4015C22.3 12.3515 22.2845 12.3027 22.2556 12.2619C22.2267 12.2211 22.1858 12.1902 22.1386 12.1736L22.1263 12.1705Z" fill="#CCCCCC"/>
<path fill-rule="evenodd" clip-rule="evenodd" d="M14.9981 14.4075L14.9988 14.3854V10.0533C14.8535 9.83829 14.684 9.63408 14.5 9.5C14.2332 9.30554 13.8229 9.17608 13.4988 9.09771V14.3633C13.4957 14.4679 13.494 14.5781 13.4923 14.6924L13.4923 14.6926C13.4836 15.2745 13.4733 15.9638 13.2646 16.5636C13.0461 17.2815 12.6716 17.9214 12.141 18.4831C11.6105 19.0138 11.0019 19.4195 10.3152 19.7004C9.62857 19.95 9.10501 20 8.16166 20C7.21831 20 6.38263 19.9032 5.53993 19.5599C4.72844 19.1854 4.04181 18.6548 3.48001 17.9681L5.16541 15.8146C5.48147 16.2168 5.86367 16.5398 6.312 16.7834C6.35066 16.8044 6.3898 16.8248 6.42944 16.8446C6.92882 17.0943 7.47502 17.2191 8.06802 17.2191C8.84829 17.2191 9.45692 16.9694 9.89387 16.47C10.3308 15.9395 10.5493 15.1591 10.5493 14.1292V3.5H13.4988V5.90229C13.8229 5.82392 14.2332 5.69446 14.5 5.5C14.684 5.36592 14.8535 5.16171 14.9988 4.94674V2.75L14.25 2H9.89387L9.04929 2.75V8.06461V14.1292C9.04929 14.9489 8.87736 15.3331 8.74953 15.4994C8.64685 15.6097 8.47814 15.7191 8.06802 15.7191C7.69322 15.7191 7.37867 15.6421 7.1004 15.5031C6.79811 15.3519 6.55069 15.1498 6.34481 14.8878L6.04936 14.5118H4.28025L4.26198 14.5352L3.36096 15.6864L2.45995 16.8377L2 17.43V18.52L2.12905 18.6857L2.31908 18.918C3.02589 19.7818 3.89504 20.4528 4.91139 20.9218L4.94234 20.9361L4.97391 20.949C6.06322 21.3928 7.11261 21.5 8.16166 21.5C9.17809 21.5 9.90265 21.4464 10.8277 21.1101L10.8556 21.1L10.8831 21.0887C11.7563 20.7315 12.532 20.2136 13.2018 19.5437L13.2168 19.5286L13.2314 19.5131C13.9099 18.7949 14.4023 17.9625 14.6914 17.0271C14.9801 16.1759 14.9893 15.1989 14.9945 14.6468L14.9945 14.6464C14.9954 14.554 14.9962 14.4735 14.9981 14.4075Z" fill="#CCCCCC"/>
</svg>
