<svg width="128" height="128" viewBox="0 0 128 128" fill="none" xmlns="http://www.w3.org/2000/svg">
<circle cx="64" cy="64" r="64" fill="white"/>
<path d="M79.8825 52.5193C79.6511 52.2204 79.4007 51.9354 79.1324 51.6662C78.1334 50.6642 76.9139 49.9093 75.5711 49.4619L71.1621 48.0301C70.8223 47.9103 70.5281 47.6881 70.3199 47.3942C70.1118 47.1003 70 46.7491 70 46.389C70 46.0289 70.1118 45.6777 70.3199 45.3838C70.5281 45.0899 70.8223 44.8677 71.1621 44.7479L75.5711 43.3161C76.8952 42.8593 78.0956 42.1026 79.0784 41.1052C80.0343 40.1352 80.7592 38.963 81.2 37.6759L81.2366 37.5668L82.6695 33.1613C82.7894 32.8217 83.0117 32.5277 83.3059 32.3197C83.6 32.1117 83.9515 32 84.3118 32C84.6722 32 85.0236 32.1117 85.3178 32.3197C85.6119 32.5277 85.8343 32.8217 85.9542 33.1613L87.3871 37.5668C87.8326 38.9062 88.5847 40.1233 89.5835 41.1213C90.5823 42.1194 91.8003 42.8709 93.1407 43.3161L97.5497 44.7479L97.6378 44.7699C97.9777 44.8897 98.2719 45.1119 98.4801 45.4058C98.6882 45.6997 98.8 46.0509 98.8 46.411C98.8 46.7711 98.6882 47.1223 98.4801 47.4162C98.2719 47.7101 97.9777 47.9323 97.6378 48.0521L93.2289 49.4839C91.8885 49.9291 90.6705 50.6806 89.6717 51.6787C88.6729 52.6767 87.9208 53.8938 87.4752 55.2332L86.0423 59.6387C86.0294 59.6754 86.0153 59.7115 86 59.747C85.8737 60.0407 85.6684 60.2948 85.406 60.4803C85.1118 60.6883 84.7603 60.8 84.4 60.8C84.0397 60.8 83.6882 60.6883 83.394 60.4803C83.0999 60.2723 82.8776 59.9783 82.7577 59.6387L81.3248 55.2332C81.001 54.2506 80.5124 53.3333 79.8825 52.5193ZM104.505 64.6822L102.056 63.8867C101.311 63.6394 100.635 63.2219 100.08 62.6674C99.5248 62.1129 99.107 61.4368 98.8595 60.6927L98.0634 58.2451C97.9968 58.0565 97.8733 57.8931 97.7099 57.7776C97.5465 57.6621 97.3512 57.6 97.151 57.6C96.9508 57.6 96.7556 57.6621 96.5921 57.7776C96.4287 57.8931 96.3052 58.0565 96.2386 58.2451L95.4425 60.6927C95.1999 61.4316 94.7896 62.1043 94.2436 62.6584C93.6975 63.2125 93.0307 63.6329 92.295 63.8867L89.8456 64.6822C89.6568 64.7487 89.4934 64.8722 89.3777 65.0354C89.2621 65.1987 89.2 65.3938 89.2 65.5939C89.2 65.7939 89.2621 65.989 89.3777 66.1523C89.4934 66.3156 89.6568 66.439 89.8456 66.5056L92.295 67.301C93.041 67.5496 93.7186 67.969 94.2735 68.5257C94.8285 69.0824 95.2456 69.761 95.4915 70.5073L96.2876 72.9549C96.3542 73.1435 96.4777 73.3069 96.6411 73.4224C96.8045 73.538 96.9998 73.6 97.2 73.6C97.4002 73.6 97.5954 73.538 97.7589 73.4224C97.9223 73.3069 98.0458 73.1435 98.1124 72.9549L98.9085 70.5073C99.156 69.7632 99.5738 69.0871 100.129 68.5326C100.684 67.9781 101.36 67.5606 102.105 67.3133L104.554 66.5178C104.743 66.4513 104.907 66.3279 105.022 66.1646C105.138 66.0013 105.2 65.8062 105.2 65.6061C105.2 65.4061 105.138 65.211 105.022 65.0477C104.907 64.8844 104.743 64.761 104.554 64.6944L104.505 64.6822Z" fill="#242424"/>
<path fill-rule="evenodd" clip-rule="evenodd" d="M75.9924 73.6298L75.995 73.5415V56.213C75.4141 55.3532 74.7359 54.5363 74 54C72.9327 53.2222 71.2914 52.7043 69.995 52.3909V73.4532C69.9827 73.8715 69.9761 74.3123 69.9693 74.7697L69.9693 74.7705C69.9345 77.0982 69.8934 79.8553 69.0585 82.2545C68.1845 85.126 66.6865 87.6855 64.564 89.9325C62.442 92.055 60.0075 93.678 57.2609 94.8015C54.5143 95.8 52.42 96 48.6466 96C44.8732 96 41.5305 95.613 38.1597 94.2395C34.9138 92.7415 32.1672 90.619 29.92 87.8725L36.6616 79.2585C37.9259 80.8673 39.4547 82.1591 41.248 83.1335C41.4026 83.2175 41.5592 83.2992 41.7178 83.3785C43.7153 84.377 45.9001 84.8765 48.2721 84.8765C51.3932 84.8765 53.8277 83.8775 55.5755 81.88C57.3233 79.758 58.1972 76.6365 58.1972 72.5168V30H69.995V39.6091C71.2914 39.2957 72.9327 38.7778 74 38C74.7359 37.4637 75.4141 36.6468 75.995 35.787V27L73 24H55.5755L52.1972 27V48.2584V72.5168C52.1972 75.7956 51.5095 77.3324 50.9981 77.9976C50.5874 78.4387 49.9126 78.8765 48.2721 78.8765C46.7729 78.8765 45.5147 78.5684 44.4016 78.0122C43.1924 77.4075 42.2027 76.5991 41.3792 75.5512L40.1974 74.0473H33.121L33.0479 74.1407L29.4439 78.7457L25.8398 83.3508L24 85.72V90.08L24.5162 90.743L25.2763 91.672C28.1036 95.1274 31.5801 97.8112 35.6456 99.6873L35.7694 99.7445L35.8956 99.7959C40.2529 101.571 44.4505 102 48.6466 102C52.7123 102 55.6106 101.786 59.3109 100.44L59.4225 100.4L59.5324 100.355C63.0253 98.9261 66.1281 96.8543 68.8072 94.1746L68.8673 94.1145L68.9258 94.0526C71.6398 91.1794 73.6091 87.8498 74.7657 84.1085C75.9204 80.7035 75.9573 76.7957 75.9781 74.5871L75.9781 74.5857C75.9816 74.2159 75.9846 73.8939 75.9924 73.6298Z" fill="#C50B17"/>
</svg>
