<svg width="40" height="40" viewBox="0 0 40 40" fill="none" xmlns="http://www.w3.org/2000/svg">
<circle cx="20" cy="20" r="20" fill="white"/>
<path d="M24.9633 16.4123C24.891 16.3189 24.8127 16.2298 24.7289 16.1457C24.4167 15.8326 24.0356 15.5967 23.616 15.4568L22.2382 15.0094C22.132 14.972 22.04 14.9025 21.975 14.8107C21.9099 14.7188 21.875 14.6091 21.875 14.4966C21.875 14.384 21.9099 14.2743 21.975 14.1824C22.04 14.0906 22.132 14.0212 22.2382 13.9837L23.616 13.5363C24.0297 13.3935 24.4049 13.1571 24.712 12.8454C25.0107 12.5422 25.2373 12.1759 25.375 11.7737L25.3864 11.7396L25.8342 10.3629C25.8717 10.2568 25.9412 10.1649 26.0331 10.0999C26.125 10.0349 26.2348 10 26.3474 10C26.4601 10 26.5699 10.0349 26.6618 10.0999C26.7537 10.1649 26.8232 10.2568 26.8607 10.3629L27.3085 11.7396C27.4477 12.1582 27.6827 12.5385 27.9948 12.8504C28.307 13.1623 28.6876 13.3971 29.1065 13.5363L30.4843 13.9837L30.5118 13.9906C30.618 14.028 30.71 14.0975 30.775 14.1893C30.8401 14.2812 30.875 14.3909 30.875 14.5034C30.875 14.616 30.8401 14.7257 30.775 14.8176C30.71 14.9094 30.618 14.9788 30.5118 15.0163L29.134 15.4637C28.7152 15.6029 28.3345 15.8377 28.0224 16.1496C27.7103 16.4615 27.4753 16.8418 27.336 17.2604L26.8882 18.6371C26.8842 18.6486 26.8798 18.6598 26.875 18.6709C26.8355 18.7627 26.7714 18.8421 26.6894 18.9001C26.5974 18.9651 26.4876 19 26.375 19C26.2624 19 26.1526 18.9651 26.0606 18.9001C25.9687 18.8351 25.8992 18.7432 25.8618 18.6371L25.414 17.2604C25.3128 16.9533 25.1601 16.6666 24.9633 16.4123ZM32.6579 20.2132L31.8925 19.9646C31.6598 19.8873 31.4483 19.7568 31.2749 19.5836C31.1015 19.4103 30.9709 19.199 30.8936 18.9665L30.6448 18.2016C30.624 18.1427 30.5854 18.0916 30.5343 18.0555C30.4833 18.0194 30.4223 18 30.3597 18C30.2971 18 30.2361 18.0194 30.185 18.0555C30.134 18.0916 30.0954 18.1427 30.0746 18.2016L29.8258 18.9665C29.75 19.1974 29.6217 19.4076 29.4511 19.5808C29.2805 19.7539 29.0721 19.8853 28.8422 19.9646L28.0768 20.2132C28.0178 20.234 27.9667 20.2725 27.9305 20.3236C27.8944 20.3746 27.875 20.4356 27.875 20.4981C27.875 20.5606 27.8944 20.6216 27.9305 20.6726C27.9667 20.7236 28.0178 20.7622 28.0768 20.783L28.8422 21.0316C29.0753 21.1093 29.287 21.2403 29.4605 21.4143C29.6339 21.5882 29.7643 21.8003 29.8411 22.0335L30.0899 22.7984C30.1107 22.8573 30.1493 22.9084 30.2004 22.9445C30.2514 22.9806 30.3124 23 30.375 23C30.4376 23 30.4986 22.9806 30.5496 22.9445C30.6007 22.9084 30.6393 22.8573 30.6601 22.7984L30.9089 22.0335C30.9863 21.801 31.1168 21.5897 31.2902 21.4164C31.4636 21.2432 31.6751 21.1127 31.9078 21.0354L32.6732 20.7868C32.7322 20.766 32.7833 20.7275 32.8195 20.6764C32.8556 20.6254 32.875 20.5644 32.875 20.5019C32.875 20.4394 32.8556 20.3784 32.8195 20.3274C32.7833 20.2764 32.7322 20.2378 32.6732 20.217L32.6579 20.2132Z" fill="#242424"/>
<path fill-rule="evenodd" clip-rule="evenodd" d="M23.7476 23.0093L23.7484 22.9817V17.5666C23.5669 17.2979 23.355 17.0426 23.125 16.875C22.7915 16.6319 22.2786 16.4701 21.8734 16.3721V22.9541C21.8696 23.0848 21.8675 23.2225 21.8654 23.3654L21.8654 23.3658C21.8545 24.0932 21.8417 24.9548 21.5808 25.7045C21.3077 26.6019 20.8395 27.4017 20.1763 28.1039C19.5131 28.7672 18.7524 29.2744 17.894 29.6255C17.0357 29.9375 16.3813 30 15.2021 30C14.0229 30 12.9783 29.8791 11.9249 29.4498C10.9106 28.9817 10.0523 28.3184 9.35001 27.4602L11.4568 24.7683C11.8518 25.271 12.3296 25.6747 12.89 25.9792C12.9383 26.0055 12.9873 26.031 13.0368 26.0558C13.661 26.3678 14.3438 26.5239 15.085 26.5239C16.0604 26.5239 16.8211 26.2117 17.3673 25.5875C17.9135 24.9244 18.1866 23.9489 18.1866 22.6615V9.375H21.8734V12.3779C22.2786 12.2799 22.7915 12.1181 23.125 11.875C23.355 11.7074 23.5669 11.4521 23.7484 11.1834V8.4375L22.8125 7.5H17.3673L16.3116 8.4375V15.0808V22.6615C16.3116 23.6861 16.0967 24.1664 15.9369 24.3743C15.8086 24.5121 15.5977 24.6489 15.085 24.6489C14.6165 24.6489 14.2233 24.5526 13.8755 24.3788C13.4976 24.1898 13.1884 23.9372 12.931 23.6098L12.5617 23.1398H10.3503L10.3275 23.169L9.20121 24.608L8.07494 26.0471L7.5 26.7875V28.15L7.66131 28.3572L7.89885 28.6475C8.78236 29.7273 9.8688 30.566 11.1392 31.1523L11.1779 31.1701L11.2174 31.1862C12.579 31.7411 13.8908 31.875 15.2021 31.875C16.4726 31.875 17.3783 31.808 18.5346 31.3876L18.5695 31.375L18.6039 31.3609C19.6954 30.9144 20.665 30.267 21.5022 29.4296L21.521 29.4108L21.5393 29.3914C22.3874 28.4936 23.0029 27.4531 23.3643 26.2839C23.7251 25.2199 23.7366 23.9987 23.7432 23.3085L23.7432 23.308C23.7443 23.1925 23.7452 23.0918 23.7476 23.0093Z" fill="#C50B17"/>
</svg>
